<svg width="21" height="20" viewBox="0 0 21 20" fill="none" xmlns="http://www.w3.org/2000/svg">
<path fill-rule="evenodd" clip-rule="evenodd" d="M10.8797 0C5.35074 0 0.852905 4.48583 0.852905 10C0.852905 15.5142 5.35074 20 10.8797 20C16.4086 20 20.9064 15.5142 20.9064 10C20.9064 4.48583 16.4086 0 10.8797 0ZM7.5374 8.33333C7.5374 6.4925 9.07818 5 10.8797 5C12.6811 5 14.2219 6.4925 14.2219 8.33333V9.16667C14.2219 11.0075 12.6811 12.5 10.8797 12.5C9.07818 12.5 7.5374 11.0075 7.5374 9.16667V8.33333ZM5.53122 16.395C6.98176 17.6033 8.84673 18.3333 10.8797 18.3333C12.9126 18.3333 14.7776 17.6033 16.2281 16.395C15.5271 15.0758 14.1526 14.1667 12.5508 14.1667H9.20853C7.60676 14.1667 6.23226 15.0758 5.53122 16.395Z" fill="#778699"/>
</svg>
