<svg width="24" height="24" viewBox="0 0 24 24" fill="none" xmlns="http://www.w3.org/2000/svg">
<path d="M15.1113 2.88522C15.1868 3.87123 14.875 4.84784 14.2421 5.60764C13.939 5.9846 13.5543 6.28787 13.1171 6.49461C12.6798 6.70136 12.2013 6.80619 11.7176 6.80121C11.6868 6.32705 11.7497 5.85146 11.9027 5.40163C12.0558 4.95179 12.296 4.53653 12.6096 4.17959C13.2511 3.44893 14.1443 2.98678 15.1113 2.88522Z" fill="black"/>
<path d="M16.8752 10.0616C16.5538 10.6278 16.3809 11.2661 16.3725 11.917C16.3733 12.6493 16.5896 13.3651 16.9945 13.9752C17.3994 14.5854 17.9749 15.0628 18.6493 15.3481C18.3842 16.2094 17.9845 17.0235 17.4651 17.76C16.7675 18.8034 16.0361 19.8229 14.8753 19.8417C14.3232 19.8545 13.9506 19.6957 13.5622 19.5303C13.1572 19.3577 12.7351 19.1779 12.0746 19.1779C11.3741 19.1779 10.9331 19.3635 10.5078 19.5425C10.1403 19.6972 9.78445 19.8469 9.28296 19.8677C8.17745 19.9087 7.33259 18.7541 6.60968 17.7204C5.16479 15.6094 4.03971 11.7714 5.54804 9.15988C5.89625 8.53416 6.40061 8.0093 7.01197 7.63645C7.62334 7.26361 8.32086 7.05548 9.03657 7.03236C9.66357 7.01946 10.2652 7.26112 10.7927 7.47299C11.1961 7.63502 11.5561 7.77963 11.8509 7.77963C12.1101 7.77963 12.4601 7.64073 12.8679 7.47886C13.5104 7.22386 14.2966 6.91185 15.0977 6.99594C15.7116 7.01515 16.3127 7.17726 16.853 7.46938C17.3934 7.7615 17.8581 8.17559 18.2105 8.67876C17.6559 9.01972 17.1965 9.49543 16.8752 10.0616Z" fill="black"/>
</svg>
