<svg width="16" height="16" viewBox="0 0 16 16" fill="none" xmlns="http://www.w3.org/2000/svg">
<path d="M2.6665 13.0007C2.6665 12.5586 2.8421 12.1347 3.15466 11.8221C3.46722 11.5096 3.89114 11.334 4.33317 11.334H13.3332" stroke="white" stroke-width="2" stroke-linecap="round" stroke-linejoin="round"/>
<path d="M4.33317 1.33398H13.3332V14.6673H4.33317C3.89114 14.6673 3.46722 14.4917 3.15466 14.1792C2.8421 13.8666 2.6665 13.4427 2.6665 13.0007V3.00065C2.6665 2.55862 2.8421 2.1347 3.15466 1.82214C3.46722 1.50958 3.89114 1.33398 4.33317 1.33398V1.33398Z" stroke="white" stroke-width="2" stroke-linecap="round" stroke-linejoin="round"/>
<path d="M10.6667 7.99302V8.79591C10.667 8.87044 10.6517 8.94422 10.6218 9.01251C10.5918 9.0808 10.548 9.14211 10.4929 9.19249C10.4379 9.24288 10.3729 9.28124 10.3022 9.30512C10.2314 9.329 10.1565 9.33787 10.0821 9.33116C9.25691 9.24168 8.46428 8.96027 7.76787 8.50955C7.11995 8.09865 6.57063 7.55042 6.15892 6.90378C5.70573 6.2056 5.42369 5.41069 5.33567 4.58345C5.32897 4.50945 5.33778 4.43486 5.36155 4.36443C5.38532 4.29401 5.42351 4.2293 5.47371 4.17442C5.52391 4.11954 5.58501 4.07569 5.65312 4.04566C5.72122 4.01564 5.79485 4.0001 5.86931 4.00003H6.67378C6.80392 3.99875 6.93009 4.04474 7.02876 4.12943C7.12744 4.21412 7.19189 4.33174 7.2101 4.46034C7.24406 4.71728 7.30703 4.96957 7.39781 5.21238C7.43389 5.30817 7.4417 5.41227 7.42031 5.51236C7.39892 5.61244 7.34924 5.70431 7.27714 5.77707L6.93658 6.11696C7.31832 6.78697 7.87418 7.34174 8.54553 7.72272L8.88609 7.38283C8.959 7.31088 9.05105 7.26129 9.15133 7.23995C9.25161 7.2186 9.35593 7.22639 9.45191 7.2624C9.6952 7.35301 9.94798 7.41585 10.2054 7.44974C10.3357 7.46808 10.4547 7.53356 10.5397 7.63373C10.6247 7.7339 10.6699 7.86177 10.6667 7.99302Z" fill="white"/>
</svg>
