<svg width="36" height="33" viewBox="0 0 36 33" fill="none" xmlns="http://www.w3.org/2000/svg">
<path d="M34.714 11.4744L24.0937 9.98994L19.3497 0.739685C19.2117 0.514427 19.0151 0.3277 18.7791 0.19797C18.5432 0.0682394 18.2761 0 18.0043 0C17.7325 0 17.4654 0.0682394 17.2295 0.19797C16.9935 0.3277 16.7969 0.514427 16.6589 0.739685L11.9059 9.98994L1.28557 11.4744C1.00861 11.5129 0.748359 11.6251 0.534236 11.7984C0.320112 11.9717 0.160659 12.1991 0.0739029 12.455C-0.0128534 12.7109 -0.0234525 12.985 0.0433039 13.2464C0.11006 13.5078 0.25151 13.746 0.451661 13.9341L8.13835 21.1387L6.32504 31.3137C6.27778 31.579 6.30863 31.8518 6.4141 32.1011C6.51957 32.3504 6.69546 32.5664 6.92187 32.7246C7.14828 32.8828 7.41619 32.9769 7.69531 32.9963C7.97443 33.0156 8.25361 32.9595 8.50131 32.8343L17.9998 28.0317L27.4983 32.8343C27.746 32.9595 28.0252 33.0156 28.3043 32.9963C28.5834 32.9769 28.8513 32.8828 29.0777 32.7246C29.3042 32.5664 29.48 32.3504 29.5855 32.1011C29.691 31.8518 29.7218 31.579 29.6746 31.3137L27.8613 21.1387L35.548 13.9341C35.748 13.7462 35.8895 13.5082 35.9564 13.2471C36.0233 12.9859 36.013 12.7119 35.9266 12.4561C35.8402 12.2003 35.6811 11.9728 35.4674 11.7993C35.2536 11.6259 34.9938 11.5133 34.717 11.4744H34.714Z" fill="#52AB5C"/>
</svg>
