<svg width="20" height="20" viewBox="0 0 20 20" fill="none" xmlns="http://www.w3.org/2000/svg">
<path d="M12.199 3.43188L11.6072 3.27866C10.8274 3.07632 10.1616 3.01542 9.99886 3.00363C9.83612 3.01542 9.17248 3.07435 8.39049 3.27866L7.79871 3.43188L7.60639 2.8897C7.52185 2.65396 7.48169 2.43591 7.48169 2.22179C7.48592 0.997937 8.61452 0 10.001 0C11.3895 0 12.5181 0.997937 12.5181 2.22375C12.5181 2.43787 12.478 2.65593 12.3935 2.89166L12.199 3.43188ZM10.001 1.80532L10.039 1.80729C10.0644 1.80925 10.5315 1.83479 11.1888 1.95659C11.0472 1.51851 10.5695 1.19635 10.001 1.19635C9.43244 1.19635 8.9548 1.51851 8.81319 1.95659C9.47049 1.83479 9.93757 1.80925 9.96293 1.80729L10.001 1.80532Z" fill="#333333"/>
<path d="M10.0011 19.9996C8.1602 19.9996 6.54127 18.9113 6.0615 17.3516L5.8269 16.5894H14.1752L13.9406 17.3516C13.4608 18.9113 11.8419 19.9996 10.0011 19.9996ZM7.71214 17.7857C8.22361 18.4104 9.07112 18.8052 10.0011 18.8052C10.931 18.8052 11.7785 18.4104 12.29 17.7857H7.71214Z" fill="#333333"/>
<path d="M17.9077 17.7859H2.09451C0.997608 17.7859 0.384695 17.0984 0.196594 16.6937C-0.175381 15.9492 -0.25358 14.1517 2.1558 12.7727C4.08542 11.6687 4.06429 10.1737 4.02413 7.45886C4.01779 7.06007 4.01145 6.64165 4.01145 6.20161C4.01145 4.25092 5.4444 2.80312 8.04822 2.12539C9.08384 1.85626 9.92923 1.80715 9.96516 1.80519L10.0032 1.80322L10.0391 1.80715C10.0751 1.80912 10.9205 1.85823 11.9561 2.12736C14.5578 2.80509 15.9928 4.25288 15.9928 6.20358C15.9928 6.64361 15.9865 7.06204 15.9802 7.46082C15.94 10.1757 15.9168 11.6706 17.8485 12.7746C20.2579 14.1537 20.1797 15.9511 19.8014 16.7094C19.6175 17.0984 19.0046 17.7859 17.9077 17.7859ZM10.0011 3.0035C9.83835 3.01528 9.17472 3.07422 8.39272 3.27852C6.34052 3.81285 5.29857 4.79507 5.29857 6.20161C5.29857 6.63575 5.30491 7.05025 5.31125 7.44314C5.35352 10.2818 5.38311 12.3307 2.83212 13.7922C0.782032 14.963 1.36324 16.1908 1.36958 16.2026C1.40551 16.2694 1.59573 16.5876 2.09451 16.5876H17.9077C18.4382 16.5876 18.6241 16.2183 18.6263 16.2163C18.6876 16.0828 19.1462 14.9178 17.1722 13.7903C14.6191 12.3307 14.6508 10.2798 14.693 7.44118C14.6994 7.04829 14.7057 6.63575 14.7057 6.19965C14.7057 4.79507 13.6638 3.81088 11.6095 3.27656C10.8296 3.07422 10.1638 3.01528 10.0011 3.0035Z" fill="#333333"/>
</svg>
