<svg width="21" height="22" viewBox="0 0 21 22" fill="none" xmlns="http://www.w3.org/2000/svg">
<path d="M17.6603 1.90918H3.71934C2.53483 1.90918 1.57458 2.86686 1.57458 4.04822V17.952C1.57458 19.1333 2.53483 20.091 3.71934 20.091H17.6603C18.8448 20.091 19.805 19.1333 19.805 17.952V4.04822C19.805 2.86686 18.8448 1.90918 17.6603 1.90918Z" stroke="#778699" stroke-width="2"/>
<path d="M4.81274 7.6C4.81274 7.58771 4.81718 7.56777 4.84234 7.54476C4.86825 7.52108 4.91172 7.5 4.96904 7.5H15.6886C15.7459 7.5 15.7894 7.52108 15.8153 7.54476C15.8404 7.56775 15.8448 7.58769 15.8448 7.6V8.4C15.8448 8.41233 15.8404 8.43227 15.8153 8.45525C15.7894 8.47891 15.7459 8.5 15.6886 8.5H4.96904C4.91171 8.5 4.86823 8.47892 4.84233 8.45524C4.81718 8.43225 4.81274 8.41231 4.81274 8.4V7.6Z" fill="#35425B" stroke="#778699"/>
<path d="M4.80864 13.5144C4.80854 13.5144 4.80863 13.5136 4.80918 13.5121C4.809 13.5137 4.80873 13.5144 4.80864 13.5144ZM4.80933 13.5117C4.81139 13.5065 4.81873 13.4938 4.84142 13.4758C4.88281 13.4427 4.9589 13.4092 5.06133 13.4092H13.5841C13.6865 13.4092 13.7626 13.4427 13.804 13.4757C13.8267 13.4938 13.834 13.5065 13.8361 13.5117V14.3066C13.834 14.3118 13.8267 14.3245 13.804 14.3426C13.7626 14.3756 13.6865 14.4092 13.5841 14.4092H5.06133C4.9589 14.4092 4.88281 14.3756 4.84142 14.3426C4.81873 14.3245 4.81139 14.3118 4.80933 14.3066V13.5117ZM4.80864 14.304C4.80873 14.304 4.809 14.3047 4.80918 14.3062C4.80863 14.3048 4.80854 14.304 4.80864 14.304ZM13.8368 14.304C13.8369 14.304 13.8368 14.3048 13.8362 14.3062C13.8364 14.3047 13.8367 14.304 13.8368 14.304ZM13.8368 13.5144C13.8367 13.5144 13.8364 13.5137 13.8362 13.5121C13.8368 13.5136 13.8369 13.5143 13.8368 13.5144Z" fill="#35425B" stroke="#778699"/>
</svg>
