<svg width="24" height="24" viewBox="0 0 24 24" fill="none" xmlns="http://www.w3.org/2000/svg">
<path fill-rule="evenodd" clip-rule="evenodd" d="M21.9562 10.7619L21 3L13.2982 2.05752C13.1475 2.02056 12.9902 2.00067 12.8283 2.00002L12.8281 2L12.8281 2.00002L12.82 2C12.212 2 11.6674 2.27127 11.3006 2.69937L3.51938 10.4806C3.09128 10.8474 2.82001 11.392 2.82001 12C2.82001 12.608 3.09128 13.1526 3.51938 13.5194L10.4806 20.4806C10.8474 20.9087 11.392 21.18 12 21.18C12.608 21.18 13.1526 20.9087 13.5194 20.4806L21.3006 12.6994C21.7287 12.3326 22 11.788 22 11.18C22 11.1597 21.9997 11.1396 21.9991 11.1195L22 11.1172L21.9987 11.1064C21.9944 10.9887 21.98 10.8736 21.9562 10.7619ZM15.2929 7.29289L9.29289 13.2929L10.7071 14.7071L16.7071 8.70711L15.2929 7.29289ZM12 8.5C12 9.32843 11.3284 10 10.5 10C9.67157 10 9 9.32843 9 8.5C9 7.67157 9.67157 7 10.5 7C11.3284 7 12 7.67157 12 8.5ZM15.5 15C16.3284 15 17 14.3284 17 13.5C17 12.6716 16.3284 12 15.5 12C14.6716 12 14 12.6716 14 13.5C14 14.3284 14.6716 15 15.5 15Z" fill="#52AB5C"/>
</svg>
