<svg width="16" height="21" viewBox="0 0 16 21" fill="none" xmlns="http://www.w3.org/2000/svg">
<path d="M15.4836 10.8566C13.9132 6.77561 8.32192 6.55556 9.67223 0.624191C9.77225 0.184089 9.30215 -0.155989 8.92206 0.0740638C5.29122 2.21456 2.68062 6.50555 4.87112 12.1268C5.05117 12.587 4.51104 13.0171 4.12095 12.717C2.31053 11.3467 2.12049 9.37621 2.28053 7.96589C2.34054 7.44577 1.66038 7.19571 1.37032 7.62581C0.690159 8.66605 0 10.3464 0 12.877C0.380088 18.4783 5.11118 20.1987 6.81157 20.4188C9.24213 20.7288 11.8727 20.2787 13.7632 18.5483C15.8437 16.6179 16.6038 13.5372 15.4836 10.8566ZM6.20143 15.8877C7.64176 15.5376 8.38193 14.4974 8.58198 13.5772C8.91206 12.1469 7.62176 10.7465 8.49196 8.486C8.82204 10.3564 11.7627 11.5267 11.7627 13.5672C11.8427 16.0978 9.1021 18.2683 6.20143 15.8877Z" fill="#ED4510"/>
</svg>
