<svg width="16" height="16" viewBox="0 0 16 16" fill="none" xmlns="http://www.w3.org/2000/svg">
<path d="M15.5824 13.1221C15.5824 14.7411 11.8899 15.6017 8.25643 15.6017C4.62294 15.6017 0.93042 14.7411 0.93042 13.1221C0.93042 11.7397 3.29192 11.105 4.73565 10.8737L4.91276 11.7935C2.60494 12.1969 1.85355 12.837 1.85355 13.1221C1.85355 13.6384 4.33312 14.6766 8.2618 14.6766C12.2441 14.6766 14.6647 13.6331 14.6647 13.1221C14.6647 12.837 14.0314 12.2023 11.6645 11.7935L11.7772 10.8737C14.3158 11.3363 15.5824 12.0786 15.5824 13.1221ZM8.25643 13.6384C8.25643 13.6384 4.56391 7.87231 4.56391 4.63962C4.55854 2.6118 6.23305 0.933594 8.25643 0.933594C10.2744 0.933594 11.949 2.6118 11.949 4.63425C11.949 7.80777 8.25643 13.6384 8.25643 13.6384ZM8.25643 5.90903C8.94878 5.90903 9.46938 5.32812 9.46938 4.63962C9.46938 4.00492 8.94341 3.424 8.25643 3.424C7.56408 3.424 7.04348 4.00492 7.04348 4.63962C7.04348 5.32812 7.56408 5.90903 8.25643 5.90903Z" fill="#52AB5C"/>
</svg>
