<svg width="14" height="18" viewBox="0 0 14 18" fill="none" xmlns="http://www.w3.org/2000/svg">
<path d="M13 7.59684C13 12.5059 7 16.7137 7 16.7137C7 16.7137 1 12.5059 1 7.59684C1 5.92288 1.63214 4.31748 2.75736 3.13381C3.88258 1.95014 5.4087 1.28516 7 1.28516C8.5913 1.28516 10.1174 1.95014 11.2426 3.13381C12.3679 4.31748 13 5.92288 13 7.59684Z" fill="#B8C3D1" stroke="#B8C3D1" stroke-linecap="round" stroke-linejoin="round"/>
<path d="M7 9.69998C8.10457 9.69998 9 8.75803 9 7.59608C9 6.43413 8.10457 5.49219 7 5.49219C5.89543 5.49219 5 6.43413 5 7.59608C5 8.75803 5.89543 9.69998 7 9.69998Z" fill="white" stroke="#B8C3D1" stroke-linecap="round" stroke-linejoin="round"/>
</svg>
