<svg width="9" height="10" viewBox="0 0 9 10" fill="none" xmlns="http://www.w3.org/2000/svg">
<path d="M8 4.18182C8 7.04545 4.5 9.5 4.5 9.5C4.5 9.5 1 7.04545 1 4.18182C1 3.20534 1.36875 2.26885 2.02513 1.57838C2.6815 0.887905 3.57174 0.5 4.5 0.5C5.42826 0.5 6.3185 0.887905 6.97487 1.57838C7.63125 2.26885 8 3.20534 8 4.18182Z" fill="#B8C3D1" stroke="#B8C3D1" stroke-linecap="round" stroke-linejoin="round"/>
<path d="M4.50004 5.40914C5.14437 5.40914 5.66671 4.85967 5.66671 4.18186C5.66671 3.50406 5.14437 2.95459 4.50004 2.95459C3.85571 2.95459 3.33337 3.50406 3.33337 4.18186C3.33337 4.85967 3.85571 5.40914 4.50004 5.40914Z" fill="white" stroke="#B8C3D1" stroke-linecap="round" stroke-linejoin="round"/>
</svg>
