<svg width="25" height="24" viewBox="0 0 25 24" fill="none" xmlns="http://www.w3.org/2000/svg">
<path d="M0.5 10.6667H11.1667V0H0.5V10.6667ZM3.16667 2.66667H8.5V8H3.16667V2.66667Z" fill="white"/>
<path d="M0.5 23.9997H11.1667V13.333H0.5V23.9997ZM3.16667 15.9997H8.5V21.333H3.16667V15.9997Z" fill="white"/>
<path d="M13.8334 0V10.6667H24.5V0H13.8334ZM21.8334 8H16.5V2.66667H21.8334V8Z" fill="white"/>
<path d="M24.4999 21.333H21.8333V23.9997H24.4999V21.333Z" fill="white"/>
<path d="M16.4999 13.333H13.8333V15.9997H16.4999V13.333Z" fill="white"/>
<path d="M19.1667 16H16.5V18.6667H19.1667V16Z" fill="white"/>
<path d="M16.4999 18.667H13.8333V21.3337H16.4999V18.667Z" fill="white"/>
<path d="M19.1667 21.333H16.5V23.9997H19.1667V21.333Z" fill="white"/>
<path d="M21.8334 18.667H19.1667V21.3337H21.8334V18.667Z" fill="white"/>
<path d="M21.8334 13.333H19.1667V15.9997H21.8334V13.333Z" fill="white"/>
<path d="M24.5 16H21.8334V18.6667H24.5V16Z" fill="white"/>
</svg>
