<svg width="20" height="20" viewBox="0 0 20 20" fill="none" xmlns="http://www.w3.org/2000/svg">
<path fill-rule="evenodd" clip-rule="evenodd" d="M12.4575 12.4575C12.7829 12.132 13.3105 12.132 13.636 12.4575L18.9226 17.7441C19.2481 18.0696 19.2481 18.5972 18.9226 18.9226C18.5972 19.2481 18.0696 19.2481 17.7441 18.9226L12.4575 13.636C12.132 13.3105 12.132 12.7829 12.4575 12.4575Z" fill="#2C3F58"/>
<path fill-rule="evenodd" clip-rule="evenodd" d="M8.33337 2.50016C5.11171 2.50016 2.50004 5.11184 2.50004 8.3335C2.50004 11.5552 5.11171 14.1668 8.33337 14.1668C11.555 14.1668 14.1667 11.5552 14.1667 8.3335C14.1667 5.11184 11.555 2.50016 8.33337 2.50016ZM0.833374 8.3335C0.833374 4.19136 4.19124 0.833496 8.33337 0.833496C12.4755 0.833496 15.8334 4.19136 15.8334 8.3335C15.8334 12.4756 12.4755 15.8335 8.33337 15.8335C4.19124 15.8335 0.833374 12.4756 0.833374 8.3335Z" fill="#2C3F58"/>
</svg>
