<svg width="16" height="16" viewBox="0 0 16 16" fill="none" xmlns="http://www.w3.org/2000/svg">
<path d="M14 10.667H12.6666V12.667H10.6666V14.0003H12.6666V16.0003H14V14.0003H16V12.667H14V10.667Z" fill="#242E42"/>
<path d="M6.50596 5.5662C6.3653 5.40153 6.15463 5.31486 5.93663 5.3362C5.7213 5.35686 5.52863 5.48086 5.4213 5.66953L2.75463 10.3362C2.63663 10.5429 2.6373 10.7962 2.75663 11.0015C2.87596 11.2069 3.09596 11.3335 3.3333 11.3335H9.99996C10.2606 11.3335 10.4966 11.1815 10.6053 10.9455C10.714 10.7089 10.6753 10.4309 10.506 10.2329L6.50596 5.5662Z" fill="#242E42"/>
<path d="M1.33333 1.33333H14V9.33333H15.3333V0.666667C15.3333 0.298667 15.0353 0 14.6667 0H0.666667C0.298 0 0 0.298667 0 0.666667V14.6667C0 15.0347 0.298 15.3333 0.666667 15.3333H9.33333V14H1.33333V1.33333Z" fill="#242E42"/>
<path d="M10.6667 5.99967C11.4031 5.99967 12 5.40272 12 4.66634C12 3.92996 11.4031 3.33301 10.6667 3.33301C9.93033 3.33301 9.33337 3.92996 9.33337 4.66634C9.33337 5.40272 9.93033 5.99967 10.6667 5.99967Z" fill="#242E42"/>
</svg>
